<svg id="Layer" xmlns="http://www.w3.org/2000/svg" xmlns:xlink="http://www.w3.org/1999/xlink" viewBox="0 0 321.94 212.73"><defs><style>.cls-1,.cls-23{fill:#8ac691;}.cls-1{opacity:0.3;}.cls-2,.cls-21,.cls-24{fill:#fff;}.cls-3{fill:url(#Névtelen_színátmenet_70);}.cls-4{fill:url(#Névtelen_színátmenet_22);}.cls-24,.cls-25,.cls-5{fill-rule:evenodd;}.cls-5{fill:url(#Névtelen_színátmenet_70-2);}.cls-6{fill:url(#Névtelen_színátmenet_70-3);}.cls-7{fill:#734139;}.cls-8{fill:#f39b9b;opacity:0.2;}.cls-9{fill:#023042;}.cls-10{fill:#ef774e;}.cls-11{fill:#2362ac;}.cls-12{fill:#4979bc;}.cls-13,.cls-25{fill:#999ea3;}.cls-14{fill:#cbcdd8;}.cls-15{fill:url(#Névtelen_színátmenet_70-4);}.cls-16{fill:url(#Névtelen_színátmenet_70-5);}.cls-17{fill:url(#Névtelen_színátmenet_70-6);}.cls-18{fill:url(#Névtelen_színátmenet_19);}.cls-19{fill:#b1cfee;}.cls-20{fill:url(#Névtelen_színátmenet_19-2);}.cls-21{opacity:0.6;}.cls-22{fill:#f7b29b;}.cls-26{fill:#e7eced;}</style><linearGradient id="Névtelen_színátmenet_70" x1="181.6" y1="44.11" x2="183.33" y2="44.11" gradientUnits="userSpaceOnUse"><stop offset="0" stop-color="#8e5f51"/><stop offset="0.39" stop-color="#885a4c"/><stop offset="0.89" stop-color="#794c40"/><stop offset="1" stop-color="#74483c"/></linearGradient><linearGradient id="Névtelen_színátmenet_22" x1="166.33" y1="71.27" x2="166.33" y2="59.83" gradientUnits="userSpaceOnUse"><stop offset="0" stop-color="#8e5f51"/><stop offset="0.44" stop-color="#825447"/><stop offset="0.79" stop-color="#74483c"/></linearGradient><linearGradient id="Névtelen_színátmenet_70-2" x1="150.71" y1="45.52" x2="181.72" y2="45.52" xlink:href="#Névtelen_színátmenet_70"/><linearGradient id="Névtelen_színátmenet_70-3" x1="148.38" y1="44.21" x2="150.77" y2="44.21" xlink:href="#Névtelen_színátmenet_70"/><linearGradient id="Névtelen_színátmenet_70-4" x1="98.86" y1="105.16" x2="133.89" y2="105.16" xlink:href="#Névtelen_színátmenet_70"/><linearGradient id="Névtelen_színátmenet_70-5" x1="130.52" y1="216.75" x2="145.66" y2="216.75" xlink:href="#Névtelen_színátmenet_70"/><linearGradient id="Névtelen_színátmenet_70-6" x1="98.8" y1="188.49" x2="113.87" y2="188.49" xlink:href="#Névtelen_színátmenet_70"/><linearGradient id="Névtelen_színátmenet_19" x1="140.8" y1="102.6" x2="156.09" y2="102.6" gradientTransform="translate(-1.22 2.41) rotate(-0.62)" gradientUnits="userSpaceOnUse"><stop offset="0" stop-color="#4979bc"/><stop offset="1" stop-color="#78a5d8"/></linearGradient><linearGradient id="Névtelen_színátmenet_19-2" x1="45.07" y1="79.59" x2="66.64" y2="79.59" gradientTransform="matrix(1, 0, 0, 1, 0, 0)" xlink:href="#Névtelen_színátmenet_19"/></defs><title>eezy_08</title><ellipse class="cls-1" cx="160.97" cy="102.46" rx="160.97" ry="97.56"/><path class="cls-2" d="M195.17,112c.1-1.83.79-18,.79-27.48,0-11.08-2.13-18-7.91-19.58s-14.22-4.47-14.22-4.47h0v.41A4.15,4.15,0,0,1,169.67,65h-6.28a4.15,4.15,0,0,1-4.15-4.15v-.41h0s-8.44,2.92-14.22,4.47-7.91,8.5-7.91,19.58c0,10.2.32,24.64.32,24.64s-.3,4.76,8.41,5.28v0H185.6a9.58,9.58,0,0,0,2.82-.42Z" transform="translate(-7.02 -11.41)"/><path class="cls-3" d="M181.63,41.49v4.68c0,.19,0,.38,0,.57a2.87,2.87,0,0,0,0-5.25Z" transform="translate(-7.02 -11.41)"/><path class="cls-4" d="M165.92,62.17a14.88,14.88,0,0,1-7.16-1.86V64.5a6.73,6.73,0,0,0,6.44,6.77h2.27a6.74,6.74,0,0,0,6.44-6.77V59.83A15,15,0,0,1,165.92,62.17Z" transform="translate(-7.02 -11.41)"/><path class="cls-5" d="M181.62,30.2H165.56c-11.29,0-14.16-.65-14.7-1.6h-.11v9.58l0,0v7.49c0,9.24,7,16.79,15.51,16.79s15.5-7.56,15.5-16.79Z" transform="translate(-7.02 -11.41)"/><path d="M183.59,34.73v0h0a17.16,17.16,0,0,0-2.33-8.62h-.17c0-.05,0-.11.07-.16a17.3,17.3,0,0,0-1.23-1.8,1.9,1.9,0,0,0,.12-.63,1.87,1.87,0,0,0-.49-1.26,1.11,1.11,0,0,0,.14-.29,1.88,1.88,0,0,0-.93-2.87,2,2,0,0,0,.13-.69A1.89,1.89,0,0,0,177,16.48h-.07a1.12,1.12,0,0,0-.14-.4s0-.06,0-.08a1.89,1.89,0,0,0-1.89-1.89,2.25,2.25,0,0,0-.52.07.84.84,0,0,0-.18-.15,1.87,1.87,0,0,0-2.6-1.1,1.89,1.89,0,0,0-1.74-1.15A1.93,1.93,0,0,0,169,12a1.87,1.87,0,0,0-2.5-.19l-.25,0a1.86,1.86,0,0,0-.34,0,1.91,1.91,0,0,0-1.17-.41,1.93,1.93,0,0,0-1.36.58,1.92,1.92,0,0,0-.86-.21,1.89,1.89,0,0,0-1.75,1.15,1.86,1.86,0,0,0-.81-.19,1.9,1.9,0,0,0-1.85,1.48A1.89,1.89,0,0,0,155.59,16a2,2,0,0,0,0,.43s0,.05,0,.07l-.24,0a1.89,1.89,0,0,0-1.89,1.89,1.81,1.81,0,0,0,.14.69,1.88,1.88,0,0,0-1.29,1.78,1.93,1.93,0,0,0,.34,1.09,1.59,1.59,0,0,0,.15.29,1.82,1.82,0,0,0-.37,1.89,17.23,17.23,0,0,0-3.66,10.58h0v.05h0a31.87,31.87,0,0,0,1.92,10.65V36.92a28.74,28.74,0,0,0,8.53,1.28h10.69l-1.86-6.56c0-.1,0-.15,0-.15l0,.15c.3,1,2.45,6.08,13.59,6.53v7.22a32.45,32.45,0,0,0,1.92-10.65h0Z" transform="translate(-7.02 -11.41)"/><path class="cls-6" d="M150.74,46.34v-5a3,3,0,0,0,0,5.8C150.76,46.85,150.74,46.6,150.74,46.34Z" transform="translate(-7.02 -11.41)"/><path d="M159.62,44.39a2.42,2.42,0,0,0-1.87-.93,2.1,2.1,0,0,0-2,1.16.36.36,0,0,0,0,.25.29.29,0,0,0,.18.18.33.33,0,0,0,.43-.17,1.44,1.44,0,0,1,1.38-.75,1.7,1.7,0,0,1,1.33.65.33.33,0,0,0,.46.08A.35.35,0,0,0,159.62,44.39Z" transform="translate(-7.02 -11.41)"/><path d="M176.31,44.39a2.45,2.45,0,0,0-1.87-.93,2.12,2.12,0,0,0-2,1.16.36.36,0,0,0,0,.25.29.29,0,0,0,.18.18.32.32,0,0,0,.43-.17,1.44,1.44,0,0,1,1.38-.75,1.66,1.66,0,0,1,1.32.65.34.34,0,1,0,.55-.39Z" transform="translate(-7.02 -11.41)"/><g id="_Csoport_" data-name="&lt;Csoport&gt;"><path class="cls-7" d="M166.17,51.15a1.75,1.75,0,0,1-1.75-1.75V47.25a.22.22,0,0,1,.22-.21.21.21,0,0,1,.21.21V49.4a1.32,1.32,0,0,0,1.32,1.32.21.21,0,0,1,.21.22A.21.21,0,0,1,166.17,51.15Z" transform="translate(-7.02 -11.41)"/></g><path class="cls-2" d="M166.1,54.68h-.39a13,13,0,0,1-4.18-.79,3.46,3.46,0,0,0,1.06,1.35,5.65,5.65,0,0,0,3.24,1H166a5.62,5.62,0,0,0,3.23-1,3.28,3.28,0,0,0,1.06-1.35A12.93,12.93,0,0,1,166.1,54.68Z" transform="translate(-7.02 -11.41)"/><path class="cls-8" d="M175.8,46.37a3.16,3.16,0,0,0-3.16,3.17H179A3.16,3.16,0,0,0,175.8,46.37Z" transform="translate(-7.02 -11.41)"/><path class="cls-8" d="M156.5,46.37a3.17,3.17,0,0,0-3.16,3.17h6.33A3.17,3.17,0,0,0,156.5,46.37Z" transform="translate(-7.02 -11.41)"/><path class="cls-1" d="M112,20.94V35.83H77.13V30.14c-1.45.53-2.89,1.07-4.3,1.63v4.06H63.46q-6,2.84-11.36,6H72.83v34.2H38V51.68c-2.12,1.73-4.12,3.51-6,5.34V162.1H118V19.93C116,20.24,114,20.58,112,20.94ZM72.83,156.08H38v-34H72.83Zm0-40H38v-34H72.83Zm39.16,40H77.13v-34H112Zm0-40H77.13v-34H112Zm0-40H77.13V41.85H112Z" transform="translate(-7.02 -11.41)"/><path class="cls-1" d="M216.91,19.93V162.1h86V57q-2.85-2.75-6-5.34V76.05H262.08V41.85h20.74q-5.35-3.18-11.36-6h-9.38V31.77c-1.41-.56-2.84-1.1-4.3-1.63v5.69H222.93V20.94Q220,20.4,216.91,19.93Zm45.17,102.16h34.86v34H262.08Zm0-40h34.86v34H262.08Zm-39.15,40h34.85v34H222.93Zm0-40h34.85v34H222.93Zm0-40.22h34.85v34.2H222.93Z" transform="translate(-7.02 -11.41)"/><polygon class="cls-9" points="176.95 140.7 187.52 212.21 191.39 212.21 180.29 140.7 176.95 140.7"/><polygon class="cls-9" points="139.29 140.7 128.19 212.21 132.06 212.21 142.63 140.7 139.29 140.7"/><path class="cls-10" d="M205.15,129.26c0,20.44-22.38,27.55-37.16,27.55s-37.15-7.11-37.15-27.55,22.37-58,37.15-58S205.15,108.83,205.15,129.26Z" transform="translate(-7.02 -11.41)"/><path class="cls-11" d="M140.89,137.73l-7.74,75.55a5.66,5.66,0,0,0,5.62,6.34h-1.42c2.55,0,4.22-1.7,4.9-4.17l20.55-73.28a11.89,11.89,0,0,0,.43-3.14c0-3.74-1.18-11.38-10.84-11.38h-.28A11.43,11.43,0,0,0,140.89,137.73Z" transform="translate(-7.02 -11.41)"/><path class="cls-12" d="M189.75,116.54s-4.26-6.85-21.49-6.85c-18.37,0-26.66,8.47-34.38,16.2s-29.46,56.37-29.46,56.37l9.34,4.05,33.32-49.52H187S196.56,127.24,189.75,116.54Z" transform="translate(-7.02 -11.41)"/><path class="cls-11" d="M189.75,116.54s-4.26-6.85-21.49-6.85c-1.42,0-2.78.06-4.09.16,13.67,1,17.21,6.69,17.21,6.69,6.81,10.7-2.8,20.25-2.8,20.25H187S196.56,127.24,189.75,116.54Z" transform="translate(-7.02 -11.41)"/><path class="cls-13" d="M316.7,224.14H19.29a.52.52,0,0,1,0-1H316.7a.52.52,0,1,1,0,1Z" transform="translate(-7.02 -11.41)"/><rect class="cls-13" x="32.98" y="104.45" width="253.63" height="6.85"/><rect class="cls-2" x="55.54" y="111.3" width="25.19" height="5.54"/><polygon class="cls-14" points="61.79 116.84 32.98 211.53 33.2 211.64 37.53 211.64 66.38 116.84 61.79 116.84"/><polygon class="cls-14" points="74.09 116.84 69.5 116.84 98.35 211.64 102.68 211.64 102.9 211.53 74.09 116.84"/><rect class="cls-2" x="240.66" y="111.3" width="25.19" height="5.54"/><polygon class="cls-14" points="246.91 116.84 218.09 211.53 218.32 211.64 222.65 211.64 251.5 116.84 246.91 116.84"/><polygon class="cls-14" points="259.2 116.84 254.62 116.84 283.47 211.64 287.8 211.64 288.02 211.53 259.2 116.84"/><path d="M174.29,112.14a1.86,1.86,0,0,1-1.81,1.45h-12.4a1.86,1.86,0,0,1-1.81-1.45H127.34V114a1.87,1.87,0,0,0,1.86,1.86h74.16a1.86,1.86,0,0,0,1.86-1.86v-1.86Z" transform="translate(-7.02 -11.41)"/><path class="cls-9" d="M133.85,115.82V72.25a1.85,1.85,0,0,1,1.85-1.84h61.17a1.85,1.85,0,0,1,1.84,1.84v43.57Z" transform="translate(-7.02 -11.41)"/><circle class="cls-14" cx="159.26" cy="82.2" r="4.03"/><path class="cls-15" d="M133.84,95.45c-2.82,4.59-12.21,9.24-15.57,9.72l-5.69.89a34.24,34.24,0,0,0-10,2.79s-4.38,1.91-3.65,4.4a2.3,2.3,0,0,0,1.43,1.62c1.17-3.23,5.53-5.29,9.41-5.29,3.29,0,6.92,1.48,8.66,3.9h0c6.69,0,12.34-3.71,15.44-6.22Z" transform="translate(-7.02 -11.41)"/><path class="cls-16" d="M143,212.61h-9.89s-2.62,5.24-2.62,8.28h15.14C145.66,217.85,143,212.61,143,212.61Z" transform="translate(-7.02 -11.41)"/><path class="cls-9" d="M140.59,217.88h-5c-3,0-5.49,1.79-5.49,5.22h16C146.07,219.5,143.6,217.88,140.59,217.88Z" transform="translate(-7.02 -11.41)"/><path class="cls-17" d="M113.79,186l-4.85-2-4.45-1.83s-4.51,3.91-5.69,6.77l6.93,2.85,7.32,3C114.23,192,113.79,186,113.79,186Z" transform="translate(-7.02 -11.41)"/><path class="cls-9" d="M109.44,190l-4.7-1.93c-2.84-1.17-5.86-.44-7.18,2.78l15,6.19C114,193.66,112.29,191.18,109.44,190Z" transform="translate(-7.02 -11.41)"/><path class="cls-2" d="M119.5,115.86c0-4.19-5.2-7-9.72-7s-9.71,2.79-9.71,7Z" transform="translate(-7.02 -11.41)"/><g id="ice-coffee-love"><g id="_Csoport_2" data-name="&lt;Csoport&gt;"><path class="cls-18" d="M154.47,114.87l-12,.13a1,1,0,0,1-.93-1l-1-22.07,15.29-.17-.47,22.09A1,1,0,0,1,154.47,114.87Z" transform="translate(-7.02 -11.41)"/></g></g><path class="cls-2" d="M139.44,86l1.3,28.72a1.13,1.13,0,0,0,1,1.15l13.42-.15a1.13,1.13,0,0,0,1-1.16l.67-28.75Zm16.41,5.8-.16,7.34c-.7-.5-2.37-1.29-4.63.27a4.51,4.51,0,0,0-5.36,0,4,4,0,0,0-4.81-.08l-.33-7.4Zm-5.23,23.17-4.11,0-.6-15.18a4.09,4.09,0,0,1,5,0Zm-8.87-.34L141,99.79c.35-.32,2-1.63,4.48,0l.59,15.19-3.58,0A.88.88,0,0,1,141.75,114.58Zm12.72.29-3.41,0,.26-15.2c2.43-1.67,4-.39,4.35-.08l-.44,14.75A.87.87,0,0,1,154.47,114.87Z" transform="translate(-7.02 -11.41)"/><circle class="cls-2" cx="143.32" cy="84.56" r="0.51"/><circle class="cls-2" cx="138.18" cy="82.69" r="0.51"/><g id="note"><path class="cls-2" d="M93,78.34v.34a.62.62,0,0,1,.35.59.51.51,0,1,1-1,0,.61.61,0,0,1,.34-.58v-.35H91.36v.35a.61.61,0,0,1,.35.59.51.51,0,1,1-1,0,.62.62,0,0,1,.34-.58v-.35H89.77v.34a.62.62,0,0,1,.35.59.51.51,0,1,1-1,0,.61.61,0,0,1,.34-.58v-.36H88.18v.35a.6.6,0,0,1,.36.59.56.56,0,0,1-.5.61.58.58,0,0,1-.5-.62.61.61,0,0,1,.34-.58v-.35H86.59v.35a.61.61,0,0,1,.36.59.51.51,0,1,1-1,0,.61.61,0,0,1,.34-.58v-.36H85v.35a.6.6,0,0,1,.36.58.51.51,0,1,1-1,0,.61.61,0,0,1,.34-.58v-.35H83.4v.35a.61.61,0,0,1,.36.59.51.51,0,1,1-1,0,.6.6,0,0,1,.34-.57V78.3H81.81v.34a.61.61,0,0,1,.36.59.57.57,0,0,1-.5.61.56.56,0,0,1-.5-.61.61.61,0,0,1,.34-.58V78.3H80.22v.35a.6.6,0,0,1,.36.59.57.57,0,0,1-.5.61.56.56,0,0,1-.5-.62.59.59,0,0,1,.34-.57v-.36H78.63v.34a.61.61,0,0,1,.36.59.57.57,0,0,1-.5.61.55.55,0,0,1-.5-.61.61.61,0,0,1,.34-.58v-.35H77v.35a.6.6,0,0,1,.36.59.51.51,0,1,1-1,0,.61.61,0,0,1,.34-.58v-.35H75.45v.34a.61.61,0,0,1,.36.59.57.57,0,0,1-.51.61.57.57,0,0,1-.5-.61.63.63,0,0,1,.35-.58v-.36H73.86v.35a.6.6,0,0,1,.36.58.56.56,0,0,1-.51.61.57.57,0,0,1-.5-.61.63.63,0,0,1,.35-.58v-.35H72.27v.35a.61.61,0,0,1,.36.59.57.57,0,0,1-.51.61.58.58,0,0,1-.5-.62.61.61,0,0,1,.35-.57v-.36H70.68v.34a.62.62,0,0,1,.36.59.51.51,0,1,1-1,0,.62.62,0,0,1,.35-.58v-.35H69.09v.35a.6.6,0,0,1,.36.59.57.57,0,0,1-.51.61.58.58,0,0,1-.5-.62.6.6,0,0,1,.35-.57v-.36H67.5v.34a.61.61,0,0,1,.36.59.57.57,0,0,1-.51.61.56.56,0,0,1-.5-.61.62.62,0,0,1,.35-.58v-.35H65.91v.35a.6.6,0,0,1,.36.59.58.58,0,0,1-.51.61.57.57,0,0,1-.5-.62.64.64,0,0,1,.34-.58v-.35H64.32v.34a.61.61,0,0,1,.35.59.56.56,0,0,1-.5.61.56.56,0,0,1-.5-.61.63.63,0,0,1,.34-.58v-.36H62.73v.35a.59.59,0,0,1,.35.58.57.57,0,0,1-.5.62.58.58,0,0,1-.5-.62.63.63,0,0,1,.34-.58v-.35H61.14v.35a.62.62,0,0,1,.35.59.56.56,0,0,1-.5.61.56.56,0,0,1-.5-.61.63.63,0,0,1,.34-.58v-.36H59.55v.35a.61.61,0,0,1,.35.58.51.51,0,1,1-1,0,.61.61,0,0,1,.34-.58v-.35H58v.35a.62.62,0,0,1,.35.59.56.56,0,0,1-.5.61.57.57,0,0,1-.5-.62.59.59,0,0,1,.34-.57v-.36H57l-.13,37.52,36.55.13.13-37.52Z" transform="translate(-7.02 -11.41)"/><rect class="cls-19" x="75.21" y="63.66" width="0.21" height="35.04" transform="translate(-13.32 144.63) rotate(-89.68)"/><rect class="cls-19" x="75.2" y="65.5" width="0.21" height="35.04" transform="translate(-15.12 146.5) rotate(-89.71)"/><rect class="cls-19" x="75.19" y="67.34" width="0.21" height="35.04" transform="translate(-16.96 148.31) rotate(-89.71)"/><rect class="cls-19" x="75.18" y="69.17" width="0.21" height="35.04" transform="translate(-18.81 150.13) rotate(-89.71)"/><rect class="cls-19" x="75.17" y="71.01" width="0.21" height="35.04" transform="translate(-20.65 151.95) rotate(-89.71)"/><rect class="cls-19" x="75.16" y="72.84" width="0.21" height="35.04" transform="translate(-22.5 153.77) rotate(-89.71)"/><rect class="cls-19" x="75.15" y="74.68" width="0.21" height="35.04" transform="translate(-24.34 155.59) rotate(-89.71)"/><rect class="cls-19" x="75.15" y="76.52" width="0.21" height="35.04" transform="translate(-26.19 157.4) rotate(-89.71)"/><rect class="cls-19" x="75.14" y="78.35" width="0.21" height="35.04" transform="translate(-28.03 159.22) rotate(-89.71)"/><rect class="cls-19" x="75.13" y="80.19" width="0.21" height="35.04" transform="translate(-29.88 161.04) rotate(-89.71)"/><rect class="cls-19" x="75.12" y="82.03" width="0.21" height="35.04" transform="translate(-31.73 162.86) rotate(-89.71)"/><rect class="cls-19" x="75.11" y="83.86" width="0.21" height="35.04" transform="translate(-33.57 164.68) rotate(-89.71)"/><rect class="cls-19" x="75.1" y="85.7" width="0.21" height="35.04" transform="translate(-35.42 166.49) rotate(-89.71)"/><rect class="cls-19" x="75.09" y="87.53" width="0.21" height="35.04" transform="translate(-37.26 168.31) rotate(-89.71)"/><rect class="cls-19" x="75.08" y="89.37" width="0.21" height="35.04" transform="translate(-39.11 170.13) rotate(-89.71)"/><rect class="cls-19" x="75.07" y="91.21" width="0.21" height="35.04" transform="translate(-40.95 171.95) rotate(-89.71)"/><rect class="cls-19" x="75.06" y="93.04" width="0.21" height="35.04" transform="translate(-42.8 173.76) rotate(-89.71)"/><rect class="cls-19" x="75.05" y="94.88" width="0.21" height="35.04" transform="translate(-44.64 175.58) rotate(-89.71)"/><rect class="cls-19" x="75.04" y="96.72" width="0.21" height="35.04" transform="translate(-46.49 177.4) rotate(-89.71)"/></g><path class="cls-9" d="M74.79,87.16a.78.78,0,0,0-.22-.55.79.79,0,0,0-.55-.23l-11.63,0H51.9a.8.8,0,0,0-.55.22.78.78,0,0,0-.22.55c0,4.22,0,2.22,0,6.44l0,19.45c0,.73,0,1.45,0,2.17a.83.83,0,0,0,.23.55.77.77,0,0,0,.55.23l11.63,0H74a.75.75,0,0,0,.78-.77q0-6.33,0-12.65c0-6.49,0-6.76,0-13.25Z" transform="translate(-7.02 -11.41)"/><rect class="cls-19" x="45.02" y="84.95" width="3.77" height="2.95"/><path class="cls-14" d="M55.92,99.42h-4V96.24h4Zm-3.76-.23h3.53V96.47H52.16Z" transform="translate(-7.02 -11.41)"/><rect class="cls-19" x="49.44" y="84.95" width="3.77" height="2.95"/><path class="cls-14" d="M60.35,99.42h-4V96.24h4Zm-3.77-.23h3.53V96.47H56.58Z" transform="translate(-7.02 -11.41)"/><rect class="cls-19" x="53.87" y="84.95" width="3.77" height="2.95"/><path class="cls-14" d="M64.77,99.42h-4V96.24h4ZM61,99.19h3.53V96.47H61Z" transform="translate(-7.02 -11.41)"/><rect class="cls-19" x="58.29" y="84.95" width="3.77" height="2.95"/><path class="cls-14" d="M69.2,99.42h-4V96.24h4Zm-3.77-.23H69V96.47H65.43Z" transform="translate(-7.02 -11.41)"/><rect class="cls-19" x="62.72" y="84.95" width="3.77" height="2.95"/><path class="cls-14" d="M73.62,99.42h-4V96.24h4Zm-3.76-.23h3.53V96.47H69.86Z" transform="translate(-7.02 -11.41)"/><rect class="cls-19" x="45.02" y="88.6" width="3.77" height="2.95"/><path class="cls-14" d="M55.92,103.07h-4V99.89h4Zm-3.76-.23h3.53v-2.72H52.16Z" transform="translate(-7.02 -11.41)"/><rect class="cls-19" x="49.44" y="88.6" width="3.77" height="2.95"/><path class="cls-14" d="M60.35,103.07h-4V99.89h4Zm-3.77-.23h3.53v-2.72H56.58Z" transform="translate(-7.02 -11.41)"/><rect class="cls-19" x="53.87" y="88.6" width="3.77" height="2.95"/><path class="cls-14" d="M64.77,103.07h-4V99.89h4ZM61,102.84h3.53v-2.72H61Z" transform="translate(-7.02 -11.41)"/><rect class="cls-19" x="58.29" y="88.6" width="3.77" height="2.95"/><path class="cls-14" d="M69.2,103.07h-4V99.89h4Zm-3.77-.23H69v-2.72H65.43Z" transform="translate(-7.02 -11.41)"/><rect class="cls-19" x="62.72" y="88.6" width="3.77" height="2.95"/><path class="cls-14" d="M73.62,103.07h-4V99.89h4Zm-3.76-.23h3.53v-2.72H69.86Z" transform="translate(-7.02 -11.41)"/><rect class="cls-19" x="45.02" y="92.24" width="3.77" height="2.95"/><path class="cls-14" d="M55.92,106.72h-4v-3.18h4Zm-3.76-.23h3.53v-2.72H52.16Z" transform="translate(-7.02 -11.41)"/><rect class="cls-19" x="49.44" y="92.24" width="3.77" height="2.95"/><path class="cls-14" d="M60.35,106.72h-4v-3.18h4Zm-3.77-.23h3.53v-2.72H56.58Z" transform="translate(-7.02 -11.41)"/><rect class="cls-19" x="53.87" y="92.24" width="3.77" height="2.95"/><path class="cls-14" d="M64.77,106.72h-4v-3.18h4ZM61,106.49h3.53v-2.72H61Z" transform="translate(-7.02 -11.41)"/><rect class="cls-19" x="58.29" y="92.24" width="3.77" height="2.95"/><path class="cls-14" d="M69.2,106.72h-4v-3.18h4Zm-3.77-.23H69v-2.72H65.43Z" transform="translate(-7.02 -11.41)"/><rect class="cls-19" x="62.72" y="92.24" width="3.77" height="2.95"/><path class="cls-14" d="M73.62,106.72h-4v-3.18h4Zm-3.76-.23h3.53v-2.72H69.86Z" transform="translate(-7.02 -11.41)"/><rect class="cls-19" x="45.02" y="95.89" width="3.77" height="2.95"/><path class="cls-14" d="M55.92,110.37h-4v-3.18h4Zm-3.76-.23h3.53v-2.72H52.16Z" transform="translate(-7.02 -11.41)"/><rect class="cls-19" x="49.44" y="95.89" width="3.77" height="2.95"/><path class="cls-14" d="M60.35,110.37h-4v-3.18h4Zm-3.77-.23h3.53v-2.72H56.58Z" transform="translate(-7.02 -11.41)"/><rect class="cls-19" x="53.87" y="95.89" width="3.77" height="2.95"/><path class="cls-14" d="M64.77,110.37h-4v-3.18h4ZM61,110.14h3.53v-2.72H61Z" transform="translate(-7.02 -11.41)"/><rect class="cls-19" x="58.29" y="95.89" width="3.77" height="2.95"/><path class="cls-14" d="M69.2,110.37h-4v-3.18h4Zm-3.77-.23H69v-2.72H65.43Z" transform="translate(-7.02 -11.41)"/><rect class="cls-19" x="62.72" y="95.89" width="3.77" height="2.95"/><path class="cls-14" d="M73.62,110.37h-4v-3.18h4Zm-3.76-.23h3.53v-2.72H69.86Z" transform="translate(-7.02 -11.41)"/><rect class="cls-19" x="45.02" y="99.54" width="3.77" height="2.95"/><path class="cls-14" d="M55.92,114h-4v-3.18h4Zm-3.76-.23h3.53v-2.72H52.16Z" transform="translate(-7.02 -11.41)"/><rect class="cls-19" x="49.44" y="99.54" width="3.77" height="2.95"/><path class="cls-14" d="M60.35,114h-4v-3.18h4Zm-3.77-.23h3.53v-2.72H56.58Z" transform="translate(-7.02 -11.41)"/><rect class="cls-19" x="53.87" y="99.54" width="3.77" height="2.95"/><path class="cls-14" d="M64.77,114h-4v-3.18h4ZM61,113.79h3.53v-2.72H61Z" transform="translate(-7.02 -11.41)"/><rect class="cls-19" x="58.29" y="99.54" width="3.77" height="2.95"/><path class="cls-14" d="M69.2,114h-4v-3.18h4Zm-3.77-.23H69v-2.72H65.43Z" transform="translate(-7.02 -11.41)"/><rect class="cls-19" x="62.72" y="99.54" width="3.77" height="2.95"/><path class="cls-14" d="M73.62,114h-4v-3.18h4Zm-3.76-.23h3.53v-2.72H69.86Z" transform="translate(-7.02 -11.41)"/><path class="cls-2" d="M54,98.42h-.18v-.67s0-.12,0-.19h0a.41.41,0,0,1,0,.1l-.3.77h-.12l-.31-.76a.44.44,0,0,0,0-.1h0a1.1,1.1,0,0,1,0,.21v.66H52.9v-1h.24l.27.69a.37.37,0,0,1,0,.11h0a.83.83,0,0,1,0-.12l.27-.68H54Z" transform="translate(-7.02 -11.41)"/><path class="cls-2" d="M55,98.38a.6.6,0,0,1-.29.06.43.43,0,0,1-.35-.15.5.5,0,0,1-.14-.37.57.57,0,0,1,.15-.4.54.54,0,0,1,.39-.14.55.55,0,0,1,.24,0v.17a.42.42,0,0,0-.23-.07.33.33,0,0,0-.26.11.39.39,0,0,0-.11.28.33.33,0,0,0,.1.27.36.36,0,0,0,.25.11.49.49,0,0,0,.25-.07Z" transform="translate(-7.02 -11.41)"/><path class="cls-2" d="M58.28,98.42h-.17v-.66a1.62,1.62,0,0,1,0-.21h0a.41.41,0,0,1,0,.1l-.31.77h-.11l-.31-.76a.81.81,0,0,1,0-.11h0a1.29,1.29,0,0,1,0,.2v.67h-.15v-1h.24l.27.69,0,.11h0s0-.09,0-.12l.28-.68h.23Z" transform="translate(-7.02 -11.41)"/><path class="cls-2" d="M59.33,98.42h-.2L59,98.14l0-.06,0,0-.05,0H58.7v.42h-.17v-1h.34l.13,0a.28.28,0,0,1,.11,0,.16.16,0,0,1,.07.09.21.21,0,0,1,0,.12.3.3,0,0,1,0,.1.14.14,0,0,1,0,.08s0,.05-.07.06L59,98h0L59,98a.08.08,0,0,0,0,0l0,0,0,.06Zm-.63-.89v.33h.22l0,0a.21.21,0,0,0,0-.06.19.19,0,0,0,0-.07.17.17,0,0,0-.05-.12.18.18,0,0,0-.14,0Z" transform="translate(-7.02 -11.41)"/><path class="cls-2" d="M63.26,98.42H63.1v-.67a1.34,1.34,0,0,1,0-.19h0a.64.64,0,0,1,0,.09l-.31.77h-.12l-.31-.76a.58.58,0,0,0,0-.1h0v.86h-.16v-1h.24l.27.68a.51.51,0,0,1,0,.11h0a.68.68,0,0,1,0-.13l.28-.68h.23Z" transform="translate(-7.02 -11.41)"/><path class="cls-2" d="M63.89,98H63.5v-.12h.4Z" transform="translate(-7.02 -11.41)"/><path class="cls-2" d="M67.56,98.42h-.17v-.67a1.34,1.34,0,0,1,0-.19h0l0,.09-.31.77h-.12l-.3-.76,0-.1h0s0,.1,0,.2v.66h-.16v-1h.24l.27.69,0,.11h0s0-.09,0-.12l.28-.68h.23Z" transform="translate(-7.02 -11.41)"/><path class="cls-2" d="M68.54,98h-.29v.28h-.11V98h-.29v-.11h.29v-.29h.11v.29h.29Z" transform="translate(-7.02 -11.41)"/><path class="cls-2" d="M53.19,102a.49.49,0,0,1-.36-.14.53.53,0,0,1-.13-.38.55.55,0,0,1,.14-.39.47.47,0,0,1,.37-.15.45.45,0,0,1,.35.15.55.55,0,0,1,.12.37.53.53,0,0,1-.13.4A.49.49,0,0,1,53.19,102Zm0-.91a.26.26,0,0,0-.23.11.39.39,0,0,0-.09.28.46.46,0,0,0,.08.27.29.29,0,0,0,.23.1.27.27,0,0,0,.23-.09.42.42,0,0,0,.09-.29.47.47,0,0,0-.08-.28A.33.33,0,0,0,53.2,101.09Z" transform="translate(-7.02 -11.41)"/><path class="cls-2" d="M54.43,101.1h-.38v.31h.35v.14H54V102h-.17v-1h.56Z" transform="translate(-7.02 -11.41)"/><path class="cls-2" d="M55.17,101.1h-.39v.31h.36v.14h-.35V102h-.17v-1h.55Z" transform="translate(-7.02 -11.41)"/><path class="cls-2" d="M58.69,101c0,.08-.09.16-.13.24s-.07.15-.1.23-.06.16-.08.23a1.84,1.84,0,0,0-.05.25h-.18a1.42,1.42,0,0,1,.05-.22c0-.08,0-.15.07-.22l.1-.22.12-.23H58V101h.69Z" transform="translate(-7.02 -11.41)"/><path class="cls-2" d="M62.44,101.7a.19.19,0,0,1,0-.08.11.11,0,0,1,0-.08l0-.07.08,0a.45.45,0,0,1-.1-.09.24.24,0,0,1,0-.13.36.36,0,0,1,0-.11.27.27,0,0,1,.07-.08l.09-.06.12,0,.13,0L63,101a.27.27,0,0,1,.07.08.36.36,0,0,1,0,.1.25.25,0,0,1,0,.14l-.1.09.08,0,0,.07a.25.25,0,0,1,0,.07s0,.06,0,.09a.35.35,0,0,1,0,.13l-.07.09a.2.2,0,0,1-.11.06.3.3,0,0,1-.13,0l-.14,0a.39.39,0,0,1-.11-.06.23.23,0,0,1-.07-.1A.24.24,0,0,1,62.44,101.7Zm.16,0s0,.06,0,.09l0,.06.06,0a.09.09,0,0,0,.07,0h.08l.06,0a.16.16,0,0,0,0-.06.15.15,0,0,0,0-.08.25.25,0,0,0,0-.07s0,0,0-.06l0,0h-.08s0,0-.07,0a.1.1,0,0,0-.05,0,.13.13,0,0,0,0,.06A.19.19,0,0,0,62.6,101.68Zm0-.46s0,0,0,.06l0,0,0,0h.11l0,0,0,0s0,0,0-.06a.13.13,0,0,0,0-.06l0,0,0,0h-.12s0,0,0,0l0,0S62.64,101.2,62.64,101.22Z" transform="translate(-7.02 -11.41)"/><path class="cls-2" d="M67.51,101.41a.7.7,0,0,1,0,.27.56.56,0,0,1-.09.19.41.41,0,0,1-.13.1.51.51,0,0,1-.17,0h-.17l0,0v-.14h0l0,0h.11a.2.2,0,0,0,.11,0s.06,0,.09-.07a.37.37,0,0,0,0-.11.78.78,0,0,0,0-.16h0l0,0s0,0,0,0l-.06,0h-.08l-.12,0a.31.31,0,0,1-.09-.07.26.26,0,0,1-.07-.1.51.51,0,0,1,0-.13.32.32,0,0,1,0-.14.3.3,0,0,1,.07-.11A.19.19,0,0,1,67,101a.32.32,0,0,1,.14,0,.31.31,0,0,1,.13,0,.28.28,0,0,1,.11.08.52.52,0,0,1,.07.15A.66.66,0,0,1,67.51,101.41Zm-.18-.11a.14.14,0,0,0,0-.09.16.16,0,0,0,0-.07.12.12,0,0,0,0,0,.09.09,0,0,0-.07,0h-.07a.1.1,0,0,0,0,0,.21.21,0,0,0,0,.06.22.22,0,0,0,0,.08.28.28,0,0,0,0,.09.21.21,0,0,0,0,.06.1.1,0,0,0,0,0h.14l.06,0,0-.06A.15.15,0,0,0,67.33,101.3Z" transform="translate(-7.02 -11.41)"/><path class="cls-2" d="M72,101.1l-.24.37.24.37h-.19l-.13-.23,0,0h0a.16.16,0,0,0,0,.06l-.13.23h-.2l.26-.36-.24-.38h.19l.13.24,0,.06h0l.16-.3Z" transform="translate(-7.02 -11.41)"/><path class="cls-2" d="M53.87,105.57a.58.58,0,0,1-.28.06.49.49,0,0,1-.36-.14.53.53,0,0,1-.14-.37.55.55,0,0,1,.15-.4.63.63,0,0,1,.63-.11v.17a.41.41,0,0,0-.23-.06.36.36,0,0,0-.26.1.42.42,0,0,0-.11.29.36.36,0,0,0,.1.27.32.32,0,0,0,.25.1.41.41,0,0,0,.25-.07Z" transform="translate(-7.02 -11.41)"/><path class="cls-2" d="M54.65,105.62h-.58v-1h.55v.14h-.38V105h.35v.15h-.35v.3h.4Z" transform="translate(-7.02 -11.41)"/><path class="cls-2" d="M58.52,104.59v.66h.15v.14h-.15v.22h-.16v-.22h-.47v-.14s.09-.1.13-.16a1.83,1.83,0,0,0,.13-.16,1.74,1.74,0,0,0,.11-.18.65.65,0,0,0,.09-.16Zm-.16.66v-.43a2.5,2.5,0,0,1-.16.24l-.14.19Z" transform="translate(-7.02 -11.41)"/><path class="cls-2" d="M62.55,105.58v-.16a.32.32,0,0,0,.2.07.24.24,0,0,0,.17-.06.17.17,0,0,0,0-.27.3.3,0,0,0-.18,0h-.17l0-.54h.51v.14h-.37V105h.08a.36.36,0,0,1,.25.09.29.29,0,0,1,.1.22.34.34,0,0,1-.11.25.41.41,0,0,1-.28.09A.43.43,0,0,1,62.55,105.58Z" transform="translate(-7.02 -11.41)"/><path class="cls-2" d="M67.5,105.28a.52.52,0,0,1,0,.14.41.41,0,0,1-.07.11.19.19,0,0,1-.11.07.32.32,0,0,1-.14,0,.35.35,0,0,1-.14,0,.31.31,0,0,1-.11-.09.52.52,0,0,1-.07-.15.56.56,0,0,1,0-.2.87.87,0,0,1,0-.25.48.48,0,0,1,.09-.19.36.36,0,0,1,.14-.11.35.35,0,0,1,.17,0h.11l.08,0v.15l-.08,0a.16.16,0,0,0-.1,0,.15.15,0,0,0-.11,0l-.09.07a.33.33,0,0,0,0,.12.66.66,0,0,0,0,.15h0a.36.36,0,0,1,.09-.08.27.27,0,0,1,.13,0,.22.22,0,0,1,.12,0,.15.15,0,0,1,.09.06.21.21,0,0,1,.06.1A.51.51,0,0,1,67.5,105.28Zm-.16,0s0-.06,0-.08a.09.09,0,0,0,0-.07l-.05,0h-.15l-.06,0,0,.06a.15.15,0,0,0,0,.07.17.17,0,0,0,0,.07l0,.07.06,0a.11.11,0,0,0,.08,0h.07a.1.1,0,0,0,.05,0,.09.09,0,0,0,0-.07S67.33,105.32,67.34,105.3Z" transform="translate(-7.02 -11.41)"/><path class="cls-2" d="M71.77,105.16h-.4V105h.39Z" transform="translate(-7.02 -11.41)"/><path class="cls-2" d="M53.9,109.25h-.18l-.09-.25h-.41l-.09.25H53l.38-1h.19Zm-.32-.41-.14-.4a.25.25,0,0,0,0-.07h0s0,0,0,.07l-.14.4Z" transform="translate(-7.02 -11.41)"/><path class="cls-2" d="M54.74,109.21a.78.78,0,0,1-.29.06.5.5,0,0,1-.49-.52.51.51,0,0,1,.53-.55.58.58,0,0,1,.25,0v.16a.56.56,0,0,0-.23-.06.37.37,0,0,0-.27.11.39.39,0,0,0-.1.28.37.37,0,0,0,.09.27.31.31,0,0,0,.26.1.42.42,0,0,0,.25-.06Z" transform="translate(-7.02 -11.41)"/><path class="cls-2" d="M58.36,108.21v1.05H58.2v-.85l-.1.06-.12,0v-.15l.08,0,.08,0,.07,0,.08-.05Z" transform="translate(-7.02 -11.41)"/><path class="cls-2" d="M63,109.26h-.65v-.08a.3.3,0,0,1,0-.1l0-.07.06-.08.06-.06.07-.06.07-.06.07,0,0-.06,0-.06a.25.25,0,0,0,0-.14l0,0-.06,0h-.07a.27.27,0,0,0-.12,0,.38.38,0,0,0-.13.09v-.17l.06,0,.07,0h.16l.12,0a.31.31,0,0,1,.1,0,.24.24,0,0,1,.06.09.27.27,0,0,1,0,.13.37.37,0,0,1,0,.11.41.41,0,0,1-.05.09l-.06.08-.1.08-.08.07-.07.06a.13.13,0,0,0-.05.06.09.09,0,0,0,0,.06H63Z" transform="translate(-7.02 -11.41)"/><path class="cls-2" d="M72,112l-.24.37.24.36h-.2l-.12-.23,0,0h0a.15.15,0,0,1,0,0l-.13.23h-.19l.25-.36-.24-.37h.2l.12.24,0,.05h0l.17-.29Z" transform="translate(-7.02 -11.41)"/><path class="cls-2" d="M67,109.21v-.16a.3.3,0,0,0,.22.08.25.25,0,0,0,.16,0,.14.14,0,0,0,.06-.13c0-.11-.08-.17-.26-.17h-.08v-.14h.08c.15,0,.23-.05.23-.16s-.06-.15-.18-.15a.32.32,0,0,0-.2.07v-.15a.51.51,0,0,1,.25-.05.38.38,0,0,1,.22.06.25.25,0,0,1,.08.18.26.26,0,0,1-.2.26h0a.3.3,0,0,1,.17.08.25.25,0,0,1,.06.17.27.27,0,0,1-.1.22.35.35,0,0,1-.27.08A.43.43,0,0,1,67,109.21Z" transform="translate(-7.02 -11.41)"/><path class="cls-2" d="M71.91,108.79h-.29v.28H71.5v-.29h-.29v-.11h.29v-.29h.11v.29h.29Z" transform="translate(-7.02 -11.41)"/><path class="cls-2" d="M53.32,112.86a.45.45,0,0,1-.33-.14.49.49,0,0,1-.12-.34A.54.54,0,0,1,53,112a.44.44,0,0,1,.34-.13.41.41,0,0,1,.32.13.49.49,0,0,1,.12.34.53.53,0,0,1-.12.37A.5.5,0,0,1,53.32,112.86Zm0-.85a.32.32,0,0,0-.21.1.4.4,0,0,0-.08.26.34.34,0,0,0,.08.25.24.24,0,0,0,.21.1.27.27,0,0,0,.21-.09.46.46,0,0,0,0-.52A.27.27,0,0,0,53.33,112Z" transform="translate(-7.02 -11.41)"/><path class="cls-2" d="M54.76,112.84h-.18l-.45-.7s0,0,0,0h0a.38.38,0,0,1,0,.13v.62H54v-1h.18l.43.68,0,.06h0v-.74h.15Z" transform="translate(-7.02 -11.41)"/><path class="cls-2" d="M58.31,112.9a.3.3,0,0,1-.25-.14.72.72,0,0,1-.09-.37.82.82,0,0,1,.1-.41.29.29,0,0,1,.27-.14c.23,0,.34.17.34.52a.64.64,0,0,1-.1.4A.31.31,0,0,1,58.31,112.9Zm0-.93c-.12,0-.18.14-.19.41s.07.38.19.38.18-.12.18-.39S58.45,112,58.33,112Z" transform="translate(-7.02 -11.41)"/><path class="cls-2" d="M62.73,112.46a.11.11,0,0,1-.07,0,.07.07,0,0,1,0-.06.09.09,0,0,1,0-.07.11.11,0,0,1,.08,0,.11.11,0,0,1,.07,0,.07.07,0,0,1,0,.06.08.08,0,0,1,0,.07A.11.11,0,0,1,62.73,112.46Z" transform="translate(-7.02 -11.41)"/><path class="cls-2" d="M67.49,112.27h-.68v-.12h.68Zm0,.31h-.68v-.12h.68Z" transform="translate(-7.02 -11.41)"/><path class="cls-2" d="M72,98h-.85v-.13H72Z" transform="translate(-7.02 -11.41)"/><path class="cls-2" d="M71.58,97.67a.06.06,0,0,1-.07,0,.11.11,0,0,1,0-.07.1.1,0,0,1,.1-.1.11.11,0,0,1,.08,0,.14.14,0,0,1,0,.07.06.06,0,0,1,0,.07A.08.08,0,0,1,71.58,97.67Z" transform="translate(-7.02 -11.41)"/><path class="cls-2" d="M71.58,98.33a.13.13,0,0,1-.08,0,.11.11,0,0,1,0-.06.08.08,0,0,1,0-.07.13.13,0,0,1,.08,0,.09.09,0,0,1,.07,0s0,0,0,.07a.06.06,0,0,1,0,.06A.09.09,0,0,1,71.58,98.33Z" transform="translate(-7.02 -11.41)"/><rect class="cls-20" x="45.07" y="76.45" width="21.57" height="6.29" rx="0.89" ry="0.89"/><path class="cls-21" d="M53.68,94.15l7.66-6.29H52.9a.88.88,0,0,0-.88.89v4.51a.88.88,0,0,0,.88.89Z" transform="translate(-7.02 -11.41)"/><path d="M83.92,95.68a.7.7,0,0,0-.5.21.73.73,0,0,0-.21.51V115a.73.73,0,0,0,.21.51.7.7,0,0,0,.5.21H95.29a.69.69,0,0,0,.5-.21A.73.73,0,0,0,96,115V96.4a.73.73,0,0,0-.21-.51.69.69,0,0,0-.5-.21Z" transform="translate(-7.02 -11.41)"/><rect class="cls-22" x="77.44" y="85.65" width="10.34" height="8.41"/><path class="cls-2" d="M93.52,110.55a3.92,3.92,0,1,1-3.91-3.91A3.92,3.92,0,0,1,93.52,110.55Z" transform="translate(-7.02 -11.41)"/><path class="cls-13" d="M91.84,110.55a2.24,2.24,0,1,1-2.23-2.24A2.23,2.23,0,0,1,91.84,110.55Z" transform="translate(-7.02 -11.41)"/><polygon class="cls-2" points="81.98 98.23 83.54 99.14 81.98 100.04 81.98 98.23"/><rect class="cls-2" x="177.09" y="96.04" width="8.41" height="8.41" rx="0.72" ry="0.72"/><path class="cls-13" d="M186.76,109.24a.72.72,0,1,1-.72-.72A.72.72,0,0,1,186.76,109.24Z" transform="translate(-7.02 -11.41)"/><path class="cls-13" d="M186.76,111.66a.72.72,0,1,1-.72-.72A.72.72,0,0,1,186.76,111.66Z" transform="translate(-7.02 -11.41)"/><path class="cls-13" d="M186.76,114.07a.72.72,0,1,1-.72-.72A.72.72,0,0,1,186.76,114.07Z" transform="translate(-7.02 -11.41)"/><path class="cls-13" d="M191.32,109.24a.72.72,0,1,1-.72-.72A.72.72,0,0,1,191.32,109.24Z" transform="translate(-7.02 -11.41)"/><path class="cls-13" d="M191.32,111.65a.73.73,0,0,1-.72.73.73.73,0,1,1,.72-.73Z" transform="translate(-7.02 -11.41)"/><path class="cls-13" d="M191.32,114.07a.72.72,0,1,1-.72-.72A.72.72,0,0,1,191.32,114.07Z" transform="translate(-7.02 -11.41)"/><path class="cls-23" d="M243.79,184.07l3.31,39h24.65l3.32-39.13Zm23.4,6H251.66a1.2,1.2,0,1,1,0-2.4h15.53a1.2,1.2,0,0,1,0,2.4Z" transform="translate(-7.02 -11.41)"/><polygon class="cls-2" points="240.93 172.64 242.14 169.21 263.03 169.21 264.15 172.51 240.93 172.64"/><path class="cls-1" d="M327.11,97.31c-.09-.4-.18-.8-.28-1.2l-18.55.13v10.32h11.21v7.94H308.28V125h20c.06-.43.11-.85.16-1.29h-19.2V115.8h19.72c0-.43,0-.87,0-1.3h-8.16v-7.94h7.82c0-.44-.1-.87-.15-1.31H309.22V97.31Z" transform="translate(-7.02 -11.41)"/><path class="cls-1" d="M8.86,97.31c.09-.4.19-.8.28-1.2l18.56.13v10.32H16.49v7.94H27.7V125h-20c-.06-.43-.12-.85-.16-1.29h19.2V115.8H7c0-.43,0-.87,0-1.3h8.16v-7.94H7.37c0-.44.09-.87.14-1.31H26.76V97.31Z" transform="translate(-7.02 -11.41)"/><path id="_Görbe_" data-name="&lt;Görbe&gt;" class="cls-24" d="M199.86,41.85h74.38a4.08,4.08,0,0,1,3.81,4.28V91.6a4.08,4.08,0,0,1-3.81,4.28H199.86a4.07,4.07,0,0,1-3.8-4.28V46.13A4.08,4.08,0,0,1,199.86,41.85Z" transform="translate(-7.02 -11.41)"/><path class="cls-9" d="M219.21,101.2h20A1.78,1.78,0,0,1,241,103v1.42a0,0,0,0,1,0,0h-23.6a0,0,0,0,1,0,0V103A1.78,1.78,0,0,1,219.21,101.2Z"/><path class="cls-25" d="M244.93,85.67h-17.2l-.17,26.94H245ZM236.34,104a4,4,0,1,1,4-4A4,4,0,0,1,236.34,104Z" transform="translate(-7.02 -11.41)"/><circle class="cls-26" cx="229.71" cy="55.36" r="4.17"/><g id="_Group_" data-name="&lt;Group&gt;"><g id="book"><rect x="270.28" y="60.75" width="6.25" height="43.78"/><rect class="cls-13" x="270.28" y="65.75" width="6.25" height="1.25"/><rect class="cls-13" x="270.28" y="98.27" width="6.25" height="1.25"/></g><g id="book-2" data-name="book"><rect class="cls-11" x="255.24" y="60.75" width="6.25" height="43.78"/><rect class="cls-22" x="255.24" y="65.75" width="6.25" height="1.25"/><rect class="cls-22" x="255.24" y="98.27" width="6.25" height="1.25"/></g><g id="book-3" data-name="book"><rect class="cls-10" x="261.5" y="60.75" width="8.76" height="43.78"/><rect class="cls-2" x="261.5" y="65.75" width="8.76" height="6.25"/><rect class="cls-2" x="261.5" y="93.27" width="8.76" height="6.25"/></g></g><circle class="cls-26" cx="265.89" cy="68.83" r="1.83"/><rect class="cls-22" x="263.66" y="73.2" width="4.44" height="0.6"/><rect class="cls-22" x="263.66" y="74.48" width="4.44" height="0.6"/><rect class="cls-22" x="263.66" y="75.75" width="4.44" height="0.6"/></svg>